Coordinates
version=1
nRows=12
nColumns=28
inDegrees=yes

Units are S.I. units (second, meters, Newtons, ...)
Angles are in degrees.

endheader
time	pelvis_tilt	pelvis_list	pelvis_rotation	pelvis_tx	pelvis_ty	pelvis_tz	hip_flexion_r	hip_adduction_r	hip_rotation_r	knee_angle_r	ankle_angle_r	subtalar_angle_r	mtp_angle_r	hip_flexion_l	hip_adduction_l	hip_rotation_l	knee_angle_l	socket_flexion	socket_adduction	socket_rotation	socket_tx	socket_ty	socket_tz	foot_flex	lumbar_extension	lumbar_bending	lumbar_rotation
      0.00000000	      0.87226741	    -10.38134094	    -12.20372022	     -0.85868501	      0.99071748	      0.33448534	    -23.81586012	      9.63057192	     13.57648756	     -9.50852476	      1.62915743	    -15.35065324	     20.59786139	     27.40156902	    -13.10472014	      4.39674996	     -5.11668027	      3.80352746	     -2.43774255	      5.38123956	      0.03455611	      0.00440468	      0.01341721	      2.47554470	    -14.27626447	      6.99988246	     20.43223257
      0.00416667	      0.82560054	    -10.42334069	    -12.15991026	     -0.85349176	      0.98999433	      0.33393381	    -23.94611078	      9.61555493	     13.61666030	     -9.70271527	      1.60977835	    -15.33581981	     20.63328175	     27.29574096	    -13.06954759	      4.38528781	     -5.14619803	      3.82728901	     -2.45768891	      5.38212059	      0.03518857	      0.00423131	      0.01309281	      2.40638819	    -14.14953632	      7.05021814	     20.40377563
      0.00833333	      0.70482660	    -10.56709857	    -12.17733951	     -0.84811720	      0.98924190	      0.33318669	    -23.90452324	      9.69503531	     13.59510597	    -10.14859896	      1.47632802	    -15.27064394	     20.79353179	     26.90146168	    -13.00987370	      4.29443854	     -4.96933213	      3.68873206	     -2.66745429	      5.50617614	      0.03340073	      0.00346911	      0.01493931	      1.96624870	    -14.02726041	      7.29327550	     20.27643056
      0.01250000	      0.65754020	    -10.59849606	    -12.16782133	     -0.84248623	      0.98849008	      0.33256934	    -24.03681447	      9.63698813	     13.61677821	    -10.35216840	      1.42645934	    -15.25086633	     20.82420562	     26.78852738	    -12.98345565	      4.29328949	     -5.02400935	      3.73426191	     -2.67997213	      5.51169951	      0.03423415	      0.00322563	      0.01439579	      1.89631030	    -13.89573802	      7.35108576	     20.25845803
      0.01666667	      1.17619810	    -10.13276643	    -12.52182360	     -0.83659811	      0.98881051	      0.33168272	    -24.00145493	      8.62146629	     11.88823424	    -11.57095425	      0.86095707	    -12.48365815	     27.02040130	     25.14240464	    -12.11222202	      3.34365949	     -4.56352220	      3.38484452	     -3.27529379	      5.54829455	      0.02944447	      0.00273194	      0.01900777	      1.44188723	    -14.35902725	      6.75763205	     20.49471237
      0.02083333	      1.11406684	    -10.17878478	    -12.45254532	     -0.83054657	      0.98795790	      0.33104829	    -24.14804434	      8.60824894	     11.93088359	    -11.77295380	      0.80662038	    -12.48275241	     27.02548399	     25.04497750	    -12.06899872	      3.35679582	     -4.61792663	      3.42680168	     -3.28598350	      5.57782153	      0.03044800	      0.00227346	      0.01858028	      1.37091968	    -14.19185635	      6.79467156	     20.47648104
      0.02500000	      0.95791140	    -10.28513223	    -12.36535170	     -0.82450383	      0.98708408	      0.33020797	    -24.08520019	      8.69204777	     11.91418728	    -12.20428205	      0.50090314	    -12.49418243	     27.03179491	     24.76248793	    -11.97907730	      3.35942262	     -4.50786730	      3.33458978	     -3.43293825	      5.82504713	      0.02915564	      0.00148596	      0.01975455	      0.93059040	    -13.97020114	      6.98354576	     20.38703073
      0.02916667	      0.90390861	    -10.31481813	    -12.33731051	     -0.81825527	      0.98632210	      0.32947117	    -24.21289852	      8.62731975	     11.94570350	    -12.42810615	      0.41532598	    -12.49130174	     27.03459564	     24.65125891	    -11.93055845	      3.36786591	     -4.58129435	      3.39187021	     -3.41987039	      5.85134517	      0.03027041	      0.00102140	      0.01919171	      0.84666006	    -13.80442809	      7.06064265	     20.37040814
      0.03333333	      0.68909568	    -10.36951184	    -12.48580139	     -0.81199195	      0.98553520	      0.32879341	    -23.91759358	      8.55970962	     11.72172602	    -13.13418049	     -0.38597282	    -12.47686669	     27.09455775	     24.33963571	    -11.89324402	      3.09791126	     -4.44597650	      3.27815593	     -3.55855644	      6.02562933	      0.02898495	      0.00005695	      0.02025148	      0.26917353	    -13.54590591	      7.26192395	     20.17959646
      0.03750000	      0.64323937	    -10.38492375	    -12.40630364	     -0.80565289	      0.98479493	      0.32805407	    -24.04240890	      8.50652216	     11.80435650	    -13.38076893	     -0.46109330	    -12.46169699	     27.10808533	     24.21158098	    -11.82926080	      3.13389350	     -4.52954517	      3.34378902	     -3.52214390	      6.08849003	      0.02984832	     -0.00053449	      0.01958273	      0.21472412	    -13.36275264	      7.29352668	     20.17235126
      0.04166667	      0.51080550	    -10.40728276	    -12.32625905	     -0.79947185	      0.98411080	      0.32741405	    -23.90621945	      8.53436368	     11.86056642	    -13.95752626	     -0.87336312	    -12.41820556	     27.14988042	     23.91518404	    -11.73470316	      3.13908758	     -4.45227873	      3.27074052	     -3.57583007	      6.37771362	      0.02862525	     -0.00128326	      0.02010659	     -0.15122489	    -13.16492394	      7.30175753	     20.10980815
      0.04583333	      0.47752184	    -10.41721770	    -12.28903208	     -0.79291070	      0.98346266	      0.32659910	    -24.02507172	      8.43787084	     11.90522358	    -14.21739910	     -0.97944867	    -12.40804563	     27.15880971	     23.78558456	    -11.67337855	      3.14001387	     -4.55057273	      3.34696668	     -3.52836419	      6.40313375	      0.02991278	     -0.00201657	      0.01933906	     -0.23172411	    -12.97463147	      7.38375405	     20.10075748
